<svg width="357" height="336" viewBox="0 0 357 336" fill="none" xmlns="http://www.w3.org/2000/svg">
<path d="M0 0H357L319 78H260L274.5 48.5H88.5L102 78H41.5L0 0Z" fill="#D00000"/>
<path d="M147.75 234L177.582 283.078L181 288.701L184.418 283.078L214.25 234H238.384L181.082 328.17L126.445 234H147.75Z" fill="#D00000" stroke="#D00000" stroke-width="8"/>
<path d="M44.48 120.5L56.28 92.1H58.96L70.28 120.5H67.16L64.2 112.9H50.72L47.64 120.5H44.48ZM51.76 110.3H63.2L57.6 95.9L51.76 110.3ZM92.6547 92.1H95.7347L95.7747 106.86C95.7747 111.393 94.8147 114.86 92.8947 117.26C91.0014 119.633 88.1347 120.82 84.2947 120.82C80.5614 120.82 77.7747 119.82 75.9347 117.82C74.1214 115.82 73.2147 112.673 73.2147 108.38V92.1H76.3747V108.22C76.3747 111.633 77.0014 114.113 78.2547 115.66C79.508 117.207 81.5214 117.98 84.2947 117.98C87.2547 117.98 89.4014 117.073 90.7347 115.26C92.068 113.42 92.7214 110.607 92.6947 106.82L92.6547 92.1ZM120.762 92.1L120.482 94.78H111.402V120.5H108.282V94.78H99.0019V92.1H120.762ZM133.263 120.82C130.623 120.82 128.329 120.273 126.383 119.18C124.463 118.06 122.983 116.46 121.943 114.38C120.903 112.3 120.383 109.78 120.383 106.82C120.383 103.86 120.956 101.247 122.103 98.98C123.276 96.6867 124.876 94.9 126.903 93.62C128.956 92.34 131.329 91.7 134.023 91.7C136.503 91.7 138.676 92.2867 140.543 93.46C142.436 94.6333 143.903 96.2733 144.943 98.38C145.983 100.46 146.503 102.913 146.503 105.74C146.503 108.807 145.929 111.473 144.783 113.74C143.636 115.98 142.063 117.727 140.063 118.98C138.089 120.207 135.823 120.82 133.263 120.82ZM133.263 117.98C135.263 117.98 137.009 117.5 138.503 116.54C140.023 115.553 141.209 114.14 142.063 112.3C142.916 110.46 143.343 108.247 143.343 105.66C143.343 103.393 142.956 101.433 142.183 99.78C141.436 98.1 140.369 96.8067 138.983 95.9C137.596 94.9933 135.956 94.54 134.063 94.54C132.009 94.54 130.183 95.06 128.583 96.1C127.009 97.1133 125.769 98.54 124.863 100.38C123.983 102.22 123.543 104.367 123.543 106.82C123.543 110.393 124.409 113.153 126.143 115.1C127.876 117.02 130.249 117.98 133.263 117.98ZM180.026 97.74H166.986V103.38H179.186V109.02H166.986V114.86H180.426L180.026 120.5H160.586V92.1H180.026V97.74ZM192.95 120.86C189.457 120.86 186.75 120.113 184.83 118.62C182.91 117.127 181.817 114.927 181.55 112.02L187.67 111.14C187.83 112.527 188.377 113.593 189.31 114.34C190.244 115.06 191.537 115.42 193.19 115.42C194.604 115.42 195.684 115.18 196.43 114.7C197.204 114.193 197.59 113.487 197.59 112.58C197.59 111.753 197.19 111.1 196.39 110.62C195.59 110.14 194.27 109.687 192.43 109.26C190.457 108.78 188.79 108.207 187.43 107.54C186.07 106.847 185.044 105.953 184.35 104.86C183.657 103.767 183.31 102.38 183.31 100.7C183.31 98.94 183.764 97.38 184.67 96.02C185.577 94.66 186.844 93.6067 188.47 92.86C190.097 92.0867 191.977 91.7 194.11 91.7C196.884 91.7 199.15 92.4067 200.91 93.82C202.67 95.2333 203.684 97.1667 203.95 99.62L198.23 100.58C198.017 99.4867 197.524 98.6467 196.75 98.06C195.977 97.4467 195.004 97.14 193.83 97.14C192.657 97.14 191.71 97.42 190.99 97.98C190.27 98.5133 189.91 99.2467 189.91 100.18C189.91 101.033 190.257 101.727 190.95 102.26C191.644 102.767 192.91 103.247 194.75 103.7C196.697 104.18 198.377 104.727 199.79 105.34C201.204 105.927 202.284 106.74 203.03 107.78C203.804 108.82 204.19 110.233 204.19 112.02C204.19 113.753 203.724 115.287 202.79 116.62C201.857 117.953 200.537 118.993 198.83 119.74C197.15 120.487 195.19 120.86 192.95 120.86ZM232.54 114.94C231.367 116.86 229.754 118.34 227.7 119.38C225.647 120.393 223.367 120.9 220.86 120.9C217.794 120.9 215.167 120.34 212.98 119.22C210.82 118.1 209.154 116.5 207.98 114.42C206.834 112.313 206.26 109.793 206.26 106.86C206.26 103.847 206.9 101.207 208.18 98.94C209.46 96.6733 211.234 94.9 213.5 93.62C215.794 92.34 218.434 91.7 221.42 91.7C224.034 91.7 226.234 92.18 228.02 93.14C229.834 94.1 231.354 95.5533 232.58 97.5L227.58 101.06C226.94 99.8333 226.06 98.94 224.94 98.38C223.82 97.82 222.62 97.54 221.34 97.54C219.66 97.54 218.194 97.9267 216.94 98.7C215.687 99.4733 214.7 100.553 213.98 101.94C213.287 103.327 212.94 104.927 212.94 106.74C212.94 109.38 213.634 111.433 215.02 112.9C216.407 114.367 218.367 115.1 220.9 115.1C222.26 115.1 223.54 114.78 224.74 114.14C225.967 113.473 226.954 112.473 227.7 111.14L232.54 114.94ZM247.221 120.9C244.234 120.927 241.674 120.38 239.541 119.26C237.408 118.14 235.768 116.527 234.621 114.42C233.474 112.313 232.901 109.78 232.901 106.82C232.901 103.86 233.501 101.247 234.701 98.98C235.928 96.6867 237.648 94.9 239.861 93.62C242.074 92.34 244.701 91.7 247.741 91.7C250.434 91.7 252.794 92.2867 254.821 93.46C256.848 94.6333 258.421 96.2733 259.541 98.38C260.688 100.46 261.261 102.913 261.261 105.74C261.261 108.78 260.661 111.433 259.461 113.7C258.261 115.967 256.594 117.727 254.461 118.98C252.354 120.233 249.941 120.873 247.221 120.9ZM246.981 115.1C249.248 115.1 251.088 114.287 252.501 112.66C253.914 111.007 254.621 108.727 254.621 105.82C254.621 103.287 253.981 101.273 252.701 99.78C251.421 98.26 249.701 97.5 247.541 97.5C245.968 97.5 244.581 97.8867 243.381 98.66C242.181 99.4333 241.234 100.513 240.541 101.9C239.874 103.26 239.541 104.86 239.541 106.7C239.541 109.367 240.194 111.433 241.501 112.9C242.834 114.367 244.661 115.1 246.981 115.1ZM265.391 120.5V92.1H271.911V114.78H284.191L283.791 120.5H265.391ZM284.329 120.5L296.649 92.1H302.129L313.969 120.5H307.329L305.049 114.7H293.329L290.969 120.5H284.329ZM295.569 109.26H302.889L299.289 100.1L295.569 109.26Z" fill="white"/>
<mask id="path-4-outside-1_1319_16" maskUnits="userSpaceOnUse" x="43" y="126.5" width="272" height="91" fill="black">
<rect fill="white" x="43" y="126.5" width="272" height="91"/>
<path d="M97.58 171.13H97.4L83 199.03H71.66L57.26 171.13H57.08V215.5H45.11V149.8H57.71L77.24 188.5H77.42L96.95 149.8H109.91V215.5H97.58V171.13ZM143.024 128.83H158.054L144.194 144.4H133.394L143.024 128.83ZM136.724 159.97V176.08H163.094V185.71H136.724V205.33H164.894V215.5H124.124V149.8H164.894V159.97H136.724ZM179.976 215.5V149.8H193.746V215.5H179.976ZM222.329 159.97V176.08H248.699V185.71H222.329V205.33H250.499V215.5H209.729V149.8H250.499V159.97H222.329ZM276.202 189.85V215.5H263.782V150.25C269.902 149.35 276.502 148.9 283.582 148.9C292.402 148.9 299.002 150.55 303.382 153.85C307.762 157.09 309.952 161.68 309.952 167.62C309.952 171.94 308.782 175.72 306.442 178.96C304.162 182.2 301.042 184.45 297.082 185.71V185.89C299.962 187.57 302.452 191.14 304.552 196.6L311.752 215.5H298.792L291.952 196.87C290.872 193.99 289.642 192.1 288.262 191.2C286.882 190.3 284.512 189.85 281.152 189.85H276.202ZM276.202 180.31H281.512C292.192 180.31 297.532 176.5 297.532 168.88C297.532 162.1 292.582 158.71 282.682 158.71C280.222 158.71 278.062 158.89 276.202 159.25V180.31Z"/>
</mask>
<path d="M97.58 171.13H97.4L83 199.03H71.66L57.26 171.13H57.08V215.5H45.11V149.8H57.71L77.24 188.5H77.42L96.95 149.8H109.91V215.5H97.58V171.13ZM143.024 128.83H158.054L144.194 144.4H133.394L143.024 128.83ZM136.724 159.97V176.08H163.094V185.71H136.724V205.33H164.894V215.5H124.124V149.8H164.894V159.97H136.724ZM179.976 215.5V149.8H193.746V215.5H179.976ZM222.329 159.97V176.08H248.699V185.71H222.329V205.33H250.499V215.5H209.729V149.8H250.499V159.97H222.329ZM276.202 189.85V215.5H263.782V150.25C269.902 149.35 276.502 148.9 283.582 148.9C292.402 148.9 299.002 150.55 303.382 153.85C307.762 157.09 309.952 161.68 309.952 167.62C309.952 171.94 308.782 175.72 306.442 178.96C304.162 182.2 301.042 184.45 297.082 185.71V185.89C299.962 187.57 302.452 191.14 304.552 196.6L311.752 215.5H298.792L291.952 196.87C290.872 193.99 289.642 192.1 288.262 191.2C286.882 190.3 284.512 189.85 281.152 189.85H276.202ZM276.202 180.31H281.512C292.192 180.31 297.532 176.5 297.532 168.88C297.532 162.1 292.582 158.71 282.682 158.71C280.222 158.71 278.062 158.89 276.202 159.25V180.31Z" fill="white"/>
<path d="M97.58 171.13H99.58V169.13H97.58V171.13ZM97.4 171.13V169.13H96.1816L95.6228 170.213L97.4 171.13ZM83 199.03V201.03H84.2184L84.7772 199.947L83 199.03ZM71.66 199.03L69.8828 199.947L70.4416 201.03H71.66V199.03ZM57.26 171.13L59.0372 170.213L58.4784 169.13H57.26V171.13ZM57.08 171.13V169.13H55.08V171.13H57.08ZM57.08 215.5V217.5H59.08V215.5H57.08ZM45.11 215.5H43.11V217.5H45.11V215.5ZM45.11 149.8V147.8H43.11V149.8H45.11ZM57.71 149.8L59.4955 148.899L58.9409 147.8H57.71V149.8ZM77.24 188.5L75.4545 189.401L76.0091 190.5H77.24V188.5ZM77.42 188.5V190.5H78.6509L79.2055 189.401L77.42 188.5ZM96.95 149.8V147.8H95.7191L95.1645 148.899L96.95 149.8ZM109.91 149.8H111.91V147.8H109.91V149.8ZM109.91 215.5V217.5H111.91V215.5H109.91ZM97.58 215.5H95.58V217.5H97.58V215.5ZM97.58 171.13V169.13H97.4V171.13V173.13H97.58V171.13ZM97.4 171.13L95.6228 170.213L81.2228 198.113L83 199.03L84.7772 199.947L99.1772 172.047L97.4 171.13ZM83 199.03V197.03H71.66V199.03V201.03H83V199.03ZM71.66 199.03L73.4372 198.113L59.0372 170.213L57.26 171.13L55.4828 172.047L69.8828 199.947L71.66 199.03ZM57.26 171.13V169.13H57.08V171.13V173.13H57.26V171.13ZM57.08 171.13H55.08V215.5H57.08H59.08V171.13H57.08ZM57.08 215.5V213.5H45.11V215.5V217.5H57.08V215.5ZM45.11 215.5H47.11V149.8H45.11H43.11V215.5H45.11ZM45.11 149.8V151.8H57.71V149.8V147.8H45.11V149.8ZM57.71 149.8L55.9245 150.701L75.4545 189.401L77.24 188.5L79.0255 187.599L59.4955 148.899L57.71 149.8ZM77.24 188.5V190.5H77.42V188.5V186.5H77.24V188.5ZM77.42 188.5L79.2055 189.401L98.7355 150.701L96.95 149.8L95.1645 148.899L75.6345 187.599L77.42 188.5ZM96.95 149.8V151.8H109.91V149.8V147.8H96.95V149.8ZM109.91 149.8H107.91V215.5H109.91H111.91V149.8H109.91ZM109.91 215.5V213.5H97.58V215.5V217.5H109.91V215.5ZM97.58 215.5H99.58V171.13H97.58H95.58V215.5H97.58ZM143.024 128.83V126.83H141.909L141.323 127.778L143.024 128.83ZM158.054 128.83L159.548 130.16L162.512 126.83H158.054V128.83ZM144.194 144.4V146.4H145.091L145.688 145.73L144.194 144.4ZM133.394 144.4L131.693 143.348L129.805 146.4H133.394V144.4ZM136.724 159.97V157.97H134.724V159.97H136.724ZM136.724 176.08H134.724V178.08H136.724V176.08ZM163.094 176.08H165.094V174.08H163.094V176.08ZM163.094 185.71V187.71H165.094V185.71H163.094ZM136.724 185.71V183.71H134.724V185.71H136.724ZM136.724 205.33H134.724V207.33H136.724V205.33ZM164.894 205.33H166.894V203.33H164.894V205.33ZM164.894 215.5V217.5H166.894V215.5H164.894ZM124.124 215.5H122.124V217.5H124.124V215.5ZM124.124 149.8V147.8H122.124V149.8H124.124ZM164.894 149.8H166.894V147.8H164.894V149.8ZM164.894 159.97V161.97H166.894V159.97H164.894ZM143.024 128.83V130.83H158.054V128.83V126.83H143.024V128.83ZM158.054 128.83L156.56 127.5L142.7 143.07L144.194 144.4L145.688 145.73L159.548 130.16L158.054 128.83ZM144.194 144.4V142.4H133.394V144.4V146.4H144.194V144.4ZM133.394 144.4L135.095 145.452L144.725 129.882L143.024 128.83L141.323 127.778L131.693 143.348L133.394 144.4ZM136.724 159.97H134.724V176.08H136.724H138.724V159.97H136.724ZM136.724 176.08V178.08H163.094V176.08V174.08H136.724V176.08ZM163.094 176.08H161.094V185.71H163.094H165.094V176.08H163.094ZM163.094 185.71V183.71H136.724V185.71V187.71H163.094V185.71ZM136.724 185.71H134.724V205.33H136.724H138.724V185.71H136.724ZM136.724 205.33V207.33H164.894V205.33V203.33H136.724V205.33ZM164.894 205.33H162.894V215.5H164.894H166.894V205.33H164.894ZM164.894 215.5V213.5H124.124V215.5V217.5H164.894V215.5ZM124.124 215.5H126.124V149.8H124.124H122.124V215.5H124.124ZM124.124 149.8V151.8H164.894V149.8V147.8H124.124V149.8ZM164.894 149.8H162.894V159.97H164.894H166.894V149.8H164.894ZM164.894 159.97V157.97H136.724V159.97V161.97H164.894V159.97ZM179.976 215.5H177.976V217.5H179.976V215.5ZM179.976 149.8V147.8H177.976V149.8H179.976ZM193.746 149.8H195.746V147.8H193.746V149.8ZM193.746 215.5V217.5H195.746V215.5H193.746ZM179.976 215.5H181.976V149.8H179.976H177.976V215.5H179.976ZM179.976 149.8V151.8H193.746V149.8V147.8H179.976V149.8ZM193.746 149.8H191.746V215.5H193.746H195.746V149.8H193.746ZM193.746 215.5V213.5H179.976V215.5V217.5H193.746V215.5ZM222.329 159.97V157.97H220.329V159.97H222.329ZM222.329 176.08H220.329V178.08H222.329V176.08ZM248.699 176.08H250.699V174.08H248.699V176.08ZM248.699 185.71V187.71H250.699V185.71H248.699ZM222.329 185.71V183.71H220.329V185.71H222.329ZM222.329 205.33H220.329V207.33H222.329V205.33ZM250.499 205.33H252.499V203.33H250.499V205.33ZM250.499 215.5V217.5H252.499V215.5H250.499ZM209.729 215.5H207.729V217.5H209.729V215.5ZM209.729 149.8V147.8H207.729V149.8H209.729ZM250.499 149.8H252.499V147.8H250.499V149.8ZM250.499 159.97V161.97H252.499V159.97H250.499ZM222.329 159.97H220.329V176.08H222.329H224.329V159.97H222.329ZM222.329 176.08V178.08H248.699V176.08V174.08H222.329V176.08ZM248.699 176.08H246.699V185.71H248.699H250.699V176.08H248.699ZM248.699 185.71V183.71H222.329V185.71V187.71H248.699V185.71ZM222.329 185.71H220.329V205.33H222.329H224.329V185.71H222.329ZM222.329 205.33V207.33H250.499V205.33V203.33H222.329V205.33ZM250.499 205.33H248.499V215.5H250.499H252.499V205.33H250.499ZM250.499 215.5V213.5H209.729V215.5V217.5H250.499V215.5ZM209.729 215.5H211.729V149.8H209.729H207.729V215.5H209.729ZM209.729 149.8V151.8H250.499V149.8V147.8H209.729V149.8ZM250.499 149.8H248.499V159.97H250.499H252.499V149.8H250.499ZM250.499 159.97V157.97H222.329V159.97V161.97H250.499V159.97ZM276.202 189.85V187.85H274.202V189.85H276.202ZM276.202 215.5V217.5H278.202V215.5H276.202ZM263.782 215.5H261.782V217.5H263.782V215.5ZM263.782 150.25L263.491 148.271L261.782 148.523V150.25H263.782ZM303.382 153.85L302.178 155.447L302.185 155.453L302.192 155.458L303.382 153.85ZM306.442 178.96L304.821 177.789L304.813 177.799L304.806 177.809L306.442 178.96ZM297.082 185.71L296.475 183.804L295.082 184.248V185.71H297.082ZM297.082 185.89H295.082V187.039L296.074 187.618L297.082 185.89ZM304.552 196.6L306.421 195.888L306.419 195.882L304.552 196.6ZM311.752 215.5V217.5H314.654L313.621 214.788L311.752 215.5ZM298.792 215.5L296.914 216.189L297.396 217.5H298.792V215.5ZM291.952 196.87L293.829 196.181L293.825 196.168L291.952 196.87ZM288.262 191.2L287.169 192.875V192.875L288.262 191.2ZM276.202 180.31H274.202V182.31H276.202V180.31ZM276.202 159.25L275.822 157.286L274.202 157.6V159.25H276.202ZM276.202 189.85H274.202V215.5H276.202H278.202V189.85H276.202ZM276.202 215.5V213.5H263.782V215.5V217.5H276.202V215.5ZM263.782 215.5H265.782V150.25H263.782H261.782V215.5H263.782ZM263.782 150.25L264.073 152.229C270.084 151.345 276.586 150.9 283.582 150.9V148.9V146.9C276.418 146.9 269.72 147.355 263.491 148.271L263.782 150.25ZM283.582 148.9V150.9C292.212 150.9 298.3 152.525 302.178 155.447L303.382 153.85L304.585 152.253C299.704 148.575 292.592 146.9 283.582 146.9V148.9ZM303.382 153.85L302.192 155.458C306.012 158.283 307.952 162.248 307.952 167.62H309.952H311.952C311.952 161.112 309.512 155.897 304.571 152.242L303.382 153.85ZM309.952 167.62H307.952C307.952 171.555 306.894 174.918 304.821 177.789L306.442 178.96L308.063 180.131C310.67 176.522 311.952 172.325 311.952 167.62H309.952ZM306.442 178.96L304.806 177.809C302.791 180.673 300.041 182.67 296.475 183.804L297.082 185.71L297.688 187.616C302.043 186.23 305.533 183.727 308.077 180.111L306.442 178.96ZM297.082 185.71H295.082V185.89H297.082H299.082V185.71H297.082ZM297.082 185.89L296.074 187.618C298.36 188.951 300.638 191.995 302.685 197.318L304.552 196.6L306.419 195.882C304.266 190.285 301.564 186.189 298.09 184.162L297.082 185.89ZM304.552 196.6L302.683 197.312L309.883 216.212L311.752 215.5L313.621 214.788L306.421 195.888L304.552 196.6ZM311.752 215.5V213.5H298.792V215.5V217.5H311.752V215.5ZM298.792 215.5L300.669 214.811L293.829 196.181L291.952 196.87L290.074 197.559L296.914 216.189L298.792 215.5ZM291.952 196.87L293.825 196.168C292.707 193.187 291.289 190.786 289.354 189.525L288.262 191.2L287.169 192.875C287.995 193.414 289.037 194.793 290.079 197.572L291.952 196.87ZM288.262 191.2L289.354 189.525C287.454 188.285 284.57 187.85 281.152 187.85V189.85V191.85C284.453 191.85 286.31 192.315 287.169 192.875L288.262 191.2ZM281.152 189.85V187.85H276.202V189.85V191.85H281.152V189.85ZM276.202 180.31V182.31H281.512V180.31V178.31H276.202V180.31ZM281.512 180.31V182.31C287.029 182.31 291.526 181.337 294.688 179.081C297.975 176.736 299.532 173.217 299.532 168.88H297.532H295.532C295.532 172.163 294.419 174.359 292.365 175.824C290.187 177.378 286.675 178.31 281.512 178.31V180.31ZM297.532 168.88H299.532C299.532 164.93 298.046 161.723 294.949 159.602C291.989 157.575 287.798 156.71 282.682 156.71V158.71V160.71C287.466 160.71 290.7 161.54 292.689 162.903C294.542 164.172 295.532 166.05 295.532 168.88H297.532ZM282.682 158.71V156.71C280.13 156.71 277.838 156.896 275.822 157.286L276.202 159.25L276.582 161.214C278.286 160.884 280.314 160.71 282.682 160.71V158.71ZM276.202 159.25H274.202V180.31H276.202H278.202V159.25H276.202Z" fill="white" mask="url(#path-4-outside-1_1319_16)"/>
<rect x="186" y="154.5" width="2" height="16" fill="black"/>
<rect x="186" y="174.5" width="2" height="16" fill="black"/>
<rect x="186" y="195.5" width="2" height="16" fill="black"/>
</svg>
