<svg width="357" height="357" viewBox="0 0 357 357" fill="none" xmlns="http://www.w3.org/2000/svg">
<path d="M0 21H357L319 99H260L274.5 69.5H88.5L102 99H41.5L0 21Z" fill="#D00000"/>
<path d="M148.875 253L179.291 303.039L181 305.851L182.709 303.039L213.125 253H241.941L181.04 353.084L122.973 253H148.875Z" fill="#D00000" stroke="#D00000" stroke-width="4"/>
<mask id="path-3-outside-1_1319_15" maskUnits="userSpaceOnUse" x="67" y="63" width="226" height="198" fill="black">
<rect fill="white" x="67" y="63" width="226" height="198"/>
<path d="M78.25 251L84.5 73.5H118.75L181 199.75L242.75 73.5H277L281.75 251H242.25L240 158.5L194.25 251H164.5L119.25 159.5L116 251H78.25Z"/>
</mask>
<path d="M78.25 251L84.5 73.5H118.75L181 199.75L242.75 73.5H277L281.75 251H242.25L240 158.5L194.25 251H164.5L119.25 159.5L116 251H78.25Z" fill="white"/>
<path d="M78.25 251L68.2562 250.648L67.8917 261H78.25V251ZM84.5 73.5V63.5H74.8459L74.5062 73.1481L84.5 73.5ZM118.75 73.5L127.719 69.0777L124.969 63.5H118.75V73.5ZM181 199.75L172.031 204.172L181.036 222.436L189.983 204.144L181 199.75ZM242.75 73.5V63.5H236.509L233.767 69.1063L242.75 73.5ZM277 73.5L286.996 73.2325L286.736 63.5H277V73.5ZM281.75 251V261H292.021L291.746 250.732L281.75 251ZM242.25 251L232.253 251.243L232.49 261H242.25V251ZM240 158.5L249.997 158.257L231.036 154.067L240 158.5ZM194.25 251V261H200.46L203.214 255.433L194.25 251ZM164.5 251L155.536 255.433L158.289 261H164.5V251ZM119.25 159.5L128.214 155.067L109.256 159.145L119.25 159.5ZM116 251V261H125.651L125.994 251.355L116 251ZM78.25 251L88.2438 251.352L94.4938 73.8519L84.5 73.5L74.5062 73.1481L68.2562 250.648L78.25 251ZM84.5 73.5V83.5H118.75V73.5V63.5H84.5V73.5ZM118.75 73.5L109.781 77.9223L172.031 204.172L181 199.75L189.969 195.328L127.719 69.0777L118.75 73.5ZM181 199.75L189.983 204.144L251.733 77.8937L242.75 73.5L233.767 69.1063L172.017 195.356L181 199.75ZM242.75 73.5V83.5H277V73.5V63.5H242.75V73.5ZM277 73.5L267.004 73.7675L271.754 251.268L281.75 251L291.746 250.732L286.996 73.2325L277 73.5ZM281.75 251V241H242.25V251V261H281.75V251ZM242.25 251L252.247 250.757L249.997 158.257L240 158.5L230.003 158.743L232.253 251.243L242.25 251ZM240 158.5L231.036 154.067L185.286 246.567L194.25 251L203.214 255.433L248.964 162.933L240 158.5ZM194.25 251V241H164.5V251V261H194.25V251ZM164.5 251L173.464 246.567L128.214 155.067L119.25 159.5L110.286 163.933L155.536 255.433L164.5 251ZM119.25 159.5L109.256 159.145L106.006 250.645L116 251L125.994 251.355L129.244 159.855L119.25 159.5ZM116 251V241H78.25V251V261H116V251Z" fill="black" mask="url(#path-3-outside-1_1319_15)"/>
</svg>
